<?xml version="1.0" encoding="UTF-8"?>
<svg width="22px" height="22px" viewBox="0 0 22 22" version="1.1" xmlns="http://www.w3.org/2000/svg" xmlns:xlink="http://www.w3.org/1999/xlink">
    <title>icon</title>
    <g id="icon" stroke="none" stroke-width="1" fill="none" fill-rule="evenodd">
        <g id="80654" transform="translate(2.000000, 6.000000)" fill="#000000" fill-rule="nonzero">
            <path d="M14.02092,5.153 C14.02812,5.153 14.03544,5.15252 14.04276,5.15152 C14.13032,5.13956 14.1916,5.05888 14.17964,4.97132 C14.14568,4.72308 14.0932,4.47492 14.0236,4.2338 C13.99908,4.14892 13.91048,4.1 13.82548,4.12444 C13.74056,4.14896 13.69164,4.23764 13.71612,4.32256 C13.78144,4.54888 13.83072,4.78172 13.86256,5.01468 C13.87356,5.09488 13.9422,5.153 14.02092,5.153 Z" id="Path"></path>
            <path d="M14.06168,5.38404 C13.97336,5.38636 13.9036,5.45984 13.90592,5.5482 C13.94068,6.87144 13.43136,8.17212 12.50856,9.11684 C12.4468,9.18004 12.448,9.28136 12.5112,9.34308 C12.54232,9.37348 12.58268,9.38864 12.62296,9.38864 C12.66456,9.38864 12.70608,9.37252 12.73744,9.34044 C13.72032,8.33424 14.2628,6.94896 14.22576,5.5398 C14.22352,5.45144 14.14944,5.38168 14.06168,5.38404 Z" id="Path"></path>
            <path d="M12.15448,9.44512 C11.87392,9.68052 11.56484,9.88556 11.2358,10.05452 C10.39244,10.48756 9.45032,10.66724 8.51132,10.57456 C7.59648,10.48412 6.72796,10.1418 5.99952,9.58456 C5.92936,9.53084 5.82892,9.54428 5.77524,9.61444 C5.72156,9.6846 5.73492,9.78504 5.80512,9.83872 C6.58084,10.43216 7.50576,10.79672 8.47984,10.893 C8.65124,10.90996 8.8226,10.91836 8.99364,10.91836 C9.82088,10.91836 10.63764,10.72136 11.38196,10.3392 C11.73224,10.15932 12.06136,9.941 12.3602,9.69024 C12.42788,9.63344 12.43672,9.53252 12.37992,9.46484 C12.32312,9.39716 12.22216,9.38832 12.15448,9.44512 Z" id="Path"></path>
            <path d="M5.17852,8.78784 C5.12276,8.71928 5.022,8.70892 4.95344,8.76468 C4.88488,8.82044 4.87452,8.92124 4.93028,8.98976 C5.06,9.14924 5.20064,9.30256 5.34832,9.44548 C5.3794,9.47552 5.41952,9.49048 5.45956,9.49048 C5.5014,9.49048 5.54316,9.47416 5.57456,9.44176 C5.636,9.37824 5.63436,9.27696 5.57084,9.21552 C5.43228,9.08136 5.30028,8.93748 5.17852,8.78784 Z" id="Path"></path>
            <path d="M3.53952,4.92752 C3.54856,4.92908 3.55752,4.9298 3.5664,4.9298 C3.64304,4.9298 3.71076,4.87456 3.72396,4.79648 C3.736,4.72524 3.7496,4.6536 3.7644,4.58352 C3.78264,4.49708 3.72732,4.4122 3.64084,4.39396 C3.55444,4.37572 3.46952,4.43108 3.45128,4.51752 C3.4356,4.59176 3.42124,4.66768 3.40848,4.74312 C3.39372,4.83024 3.4524,4.9128 3.53952,4.92752 Z" id="Path"></path>
            <path d="M3.6886,4.20928 C3.70432,4.21412 3.7202,4.21644 3.73584,4.21644 C3.80416,4.21644 3.86748,4.17228 3.88868,4.1036 C3.93732,3.946 3.9938,3.78908 4.05652,3.6372 C4.33984,2.95128 4.77648,2.31696 5.31912,1.8028 C5.38328,1.742 5.386,1.64076 5.32524,1.5766 C5.26444,1.51244 5.16316,1.50972 5.09904,1.57048 C4.52392,2.1154 4.06116,2.7878 3.76076,3.515 C3.69424,3.67596 3.6344,3.84224 3.58288,4.0092 C3.55684,4.09364 3.60416,4.18324 3.6886,4.20928 Z" id="Path"></path>
            <path d="M5.77032,1.38216 C5.80272,1.38216 5.8354,1.37232 5.86372,1.35196 C6.48412,0.90496 7.20932,0.59016 7.96092,0.44152 C8.79228,0.2772 9.66524,0.31692 10.48552,0.55648 C10.9918,0.70436 11.47256,0.92576 11.91444,1.2146 C11.98844,1.26296 12.08756,1.24216 12.13592,1.1682 C12.18428,1.09424 12.16348,0.99508 12.08952,0.94672 C11.62124,0.64064 11.11176,0.406 10.57524,0.24928 C9.70588,-0.00464 8.78044,-0.04672 7.89884,0.1276 C7.10248,0.28504 6.33404,0.61864 5.67664,1.09228 C5.60496,1.14396 5.58872,1.24396 5.64036,1.31564 C5.6716,1.35908 5.7206,1.38216 5.77032,1.38216 Z" id="Path"></path>
            <path d="M17.96708,1.08332 C17.93336,1.00592 17.84532,0.968 17.76596,0.99676 L14.9534,2.0144 C14.60776,2.1394 14.24604,2.2028 13.87828,2.2028 C13.19548,2.2028 12.5408,1.98836 11.985,1.58268 C11.12084,0.95224 10.0558,0.60504 8.98604,0.60504 C8.18748,0.60504 7.38736,0.79916 6.67212,1.16636 C4.95528,2.04788 3.8986,3.7952 3.9144,5.72648 C3.92308,6.79568 3.4076,7.79152 2.53544,8.39036 L0.06944,10.08296 C-3.09110287e-05,10.13072 -0.02068,10.22436 0.0226,10.29684 C0.06584,10.36936 0.158,10.39576 0.23308,10.3572 L4.87408,7.97432 C5.7066,9.4708 7.27072,10.39376 8.994,10.39376 C9.746,10.39376 10.46884,10.2184 11.14236,9.8726 C12.26184,9.2978 13.09052,8.32136 13.47576,7.12312 C13.8446,5.97576 13.76456,4.75676 13.25248,3.67248 L17.89344,1.28956 C17.96856,1.25096 18.0008,1.16072 17.96708,1.08332 Z M12.96636,3.45964 C12.9286,3.479 12.90012,3.5126 12.88712,3.553 C12.87412,3.5934 12.87772,3.63728 12.89712,3.67504 C13.43292,4.71848 13.5302,5.90824 13.17116,7.02512 C12.81212,8.142 12.03968,9.05216 10.99624,9.58788 C10.3684,9.91028 9.69472,10.07372 8.99404,10.07372 C7.33772,10.07372 5.83924,9.1592 5.08332,7.687 C5.055,7.6318 4.99896,7.60004 4.94084,7.60004 C4.91624,7.60004 4.89128,7.60576 4.86788,7.61772 L2.3222,8.9248 L2.7166,8.65408 C3.67656,7.99496 4.244,6.89956 4.23444,5.7238 C4.2196,3.91416 5.20972,2.27692 6.81832,1.45096 C7.49808,1.10192 8.22744,0.92496 8.98604,0.92496 C9.98852,0.92496 10.98656,1.25032 11.79636,1.84112 C12.40728,2.28704 13.1272,2.52276 13.87824,2.52276 C14.28324,2.52276 14.68156,2.45296 15.06224,2.31524 L15.51208,2.15248 L12.96636,3.45964 Z" id="Shape"></path>
            <path d="M11.5806,4.8504 C11.49504,4.87248 11.44356,4.95972 11.46564,5.04532 C11.5558,5.39472 11.57064,5.753 11.5098,6.11024 C11.49496,6.19736 11.55356,6.28 11.64064,6.29484 C11.64976,6.2964 11.6588,6.29712 11.66772,6.29712 C11.74428,6.29712 11.81196,6.242 11.82524,6.16396 C11.89372,5.76196 11.877,5.35872 11.77548,4.96536 C11.75344,4.87976 11.66604,4.8284 11.5806,4.8504 Z" id="Path"></path>
            <path d="M11.2866,7.1422 C11.21492,7.0906 11.11492,7.10696 11.06328,7.17868 C11.00192,7.26396 10.93464,7.3462 10.86328,7.42312 C10.80316,7.48792 10.80696,7.58912 10.87172,7.64924 C10.90252,7.67784 10.94156,7.69196 10.98052,7.69196 C11.02348,7.69196 11.06632,7.67476 11.09784,7.6408 C11.1782,7.55416 11.25396,7.4616 11.32304,7.36552 C11.37464,7.2938 11.35832,7.1938 11.2866,7.1422 Z" id="Path"></path>
            <path d="M10.15576,7.95852 C9.63992,8.22344 9.06716,8.30492 8.49928,8.1942 C8.4126,8.17724 8.32852,8.23392 8.31164,8.32064 C8.29476,8.40736 8.35136,8.4914 8.43808,8.50828 C8.62336,8.5444 8.80908,8.56232 8.99364,8.56232 C9.44544,8.56232 9.88988,8.45476 10.30196,8.2432 C10.38056,8.20284 10.41156,8.1064 10.3712,8.02776 C10.3308,7.94916 10.23436,7.91816 10.15576,7.95852 Z" id="Path"></path>
            <path d="M7.53092,7.78676 C7.39832,7.6952 7.27396,7.59056 7.16124,7.47576 C7.09932,7.41264 6.998,7.41172 6.935,7.47364 C6.87192,7.53552 6.87096,7.63684 6.93288,7.69988 C7.05976,7.82916 7.1998,7.947 7.34908,8.05008 C7.37684,8.06924 7.40848,8.07844 7.43988,8.07844 C7.49068,8.07844 7.54064,8.05428 7.57168,8.00932 C7.62188,7.93664 7.60364,7.837 7.53092,7.78676 Z" id="Path"></path>
            <path d="M11.2626,3.21784 C11.26872,3.1648 11.24804,3.1122 11.20736,3.0776 C10.58828,2.55068 9.79936,2.26044 8.98592,2.26044 C8.44056,2.26044 7.9164,2.3876 7.42792,2.6384 C6.19136,3.27332 5.46696,4.57936 5.5824,5.96572 C5.58684,6.01892 5.61752,6.06644 5.6642,6.09236 C5.68832,6.10572 5.71504,6.11244 5.74184,6.11244 C5.76688,6.11244 5.79196,6.10656 5.81492,6.0948 L11.17672,3.3418 C11.22424,3.31736 11.25644,3.27088 11.2626,3.21784 Z M5.89048,5.69624 C5.88356,4.53176 6.52576,3.46132 7.57412,2.92308 C8.01688,2.69572 8.49192,2.58044 8.98592,2.58044 C9.64208,2.58044 10.2806,2.78868 10.80868,3.171 L5.89048,5.69624 Z" id="Shape"></path>
            <path d="M5.20064,6.15632 C5.20508,6.15632 5.2096,6.15616 5.21408,6.15576 C5.30216,6.1484 5.36756,6.07108 5.36024,5.98304 C5.32792,5.59488 5.35796,5.20532 5.4496,4.82512 C5.47032,4.73924 5.41744,4.6528 5.33152,4.63208 C5.24568,4.61144 5.1592,4.66424 5.13848,4.75016 C5.03884,5.16356 5.00616,5.58732 5.04132,6.0096 C5.04832,6.09316 5.11828,6.15632 5.20064,6.15632 Z" id="Path"></path>
            <path d="M5.4182,4.36592 C5.43824,4.37424 5.459,4.37816 5.47944,4.37816 C5.5422,4.37816 5.60176,4.341 5.62728,4.2794 C5.95696,3.48424 6.56084,2.82948 7.32772,2.43576 C8.23428,1.97032 9.26228,1.90356 10.22228,2.2478 C10.30536,2.27764 10.39708,2.2344 10.42688,2.1512 C10.45672,2.06804 10.41348,1.9764 10.33028,1.9466 C9.30116,1.57752 8.15352,1.65208 7.18156,2.15108 C6.34736,2.5794 5.6904,3.29176 5.33172,4.15684 C5.29784,4.23848 5.3366,4.33208 5.4182,4.36592 Z" id="Path"></path>
            <path d="M10.64784,2.43156 C10.90192,2.56088 11.14048,2.71984 11.35692,2.90408 C11.38704,2.92972 11.42388,2.94224 11.46056,2.94224 C11.50584,2.94224 11.55084,2.92312 11.58248,2.88596 C11.63976,2.81868 11.63164,2.71768 11.56436,2.6604 C11.32888,2.45996 11.06936,2.28704 10.793,2.14636 C10.71416,2.10624 10.61792,2.13764 10.57784,2.21636 C10.53776,2.29508 10.56912,2.39148 10.64784,2.43156 Z" id="Path"></path>
            <path d="M12.85244,2.92316 L12.54124,3.08292 C12.46264,3.12328 12.4316,3.21972 12.47196,3.29832 C12.50032,3.35356 12.55636,3.38528 12.61444,3.38528 C12.63904,3.38528 12.664,3.37956 12.68736,3.3676 L12.99856,3.20784 C13.07716,3.16748 13.1082,3.07104 13.06784,2.99244 C13.02748,2.9138 12.931,2.88284 12.85244,2.92316 Z" id="Path"></path>
            <path d="M11.99216,3.70484 C12.01676,3.70484 12.04172,3.69912 12.06512,3.68712 L12.20872,3.6134 C12.28732,3.57304 12.31832,3.4766 12.27796,3.398 C12.2376,3.3194 12.14112,3.28832 12.06256,3.32876 L11.91896,3.40248 C11.84036,3.44284 11.80936,3.53928 11.84972,3.61788 C11.87804,3.67312 11.93408,3.70484 11.99216,3.70484 Z" id="Path"></path>
            <path d="M11.46412,3.63596 L7.92164,5.45484 C7.84304,5.4952 7.81204,5.59164 7.8524,5.67028 C7.88076,5.72548 7.9368,5.75724 7.99488,5.75724 C8.01948,5.75724 8.04444,5.75152 8.06784,5.73956 L11.61032,3.92068 C11.68892,3.88032 11.71992,3.78388 11.67956,3.70524 C11.63916,3.62664 11.54272,3.59568 11.46412,3.63596 Z" id="Path"></path>
            <path d="M7.4908,5.67604 L5.74348,6.5732 C5.66488,6.61356 5.63388,6.71 5.67424,6.78864 C5.7026,6.84384 5.75864,6.8756 5.81672,6.8756 C5.84132,6.8756 5.86628,6.86988 5.88968,6.85792 L7.637,5.96076 C7.7156,5.9204 7.7466,5.82396 7.70624,5.74532 C7.66584,5.66672 7.56944,5.63568 7.4908,5.67604 Z" id="Path"></path>
            <path d="M5.45624,6.90056 C5.41588,6.822 5.31948,6.79096 5.2408,6.83132 L4.73816,7.0894 C4.65956,7.12976 4.62856,7.2262 4.66892,7.30484 C4.69728,7.36004 4.75332,7.3918 4.8114,7.3918 C4.836,7.3918 4.86096,7.38608 4.88436,7.37412 L5.387,7.11604 C5.4656,7.07564 5.4966,6.97916 5.45624,6.90056 Z" id="Path"></path>
            <path d="M4.18824,8.55136 L3.56592,8.87092 C3.48732,8.91128 3.45632,9.00772 3.49668,9.08632 C3.525,9.14152 3.58104,9.17328 3.63916,9.17328 C3.66376,9.17328 3.68872,9.16756 3.71212,9.15556 L4.33444,8.836 C4.41304,8.79564 4.44404,8.6992 4.40368,8.6206 C4.36332,8.542 4.2668,8.51096 4.18824,8.55136 Z" id="Path"></path>
            <path d="M3.03928,9.14128 L1.33988,10.01384 C1.26128,10.0542 1.23028,10.15064 1.27064,10.22928 C1.299,10.28448 1.35504,10.31624 1.41312,10.31624 C1.43772,10.31624 1.46268,10.31052 1.48608,10.29856 L3.18548,9.426 C3.26408,9.38564 3.29508,9.2892 3.25472,9.21056 C3.21432,9.13192 3.11788,9.10092 3.03928,9.14128 Z" id="Path"></path>
            <path d="M16.63632,2.49992 C16.66092,2.49992 16.68588,2.4942 16.70928,2.4822 L17.16404,2.24868 C17.24264,2.20832 17.27364,2.11188 17.23328,2.03328 C17.19292,1.95468 17.09644,1.9236 17.01788,1.96404 L16.56312,2.19756 C16.48452,2.23792 16.45352,2.33436 16.49388,2.41296 C16.5222,2.4682 16.57824,2.49992 16.63632,2.49992 Z" id="Path"></path>
            <path d="M16.03648,2.6478 C15.99608,2.5692 15.89968,2.5382 15.82104,2.57856 L15.6056,2.68916 C15.527,2.72952 15.496,2.82596 15.53636,2.9046 C15.56472,2.9598 15.62076,2.99156 15.67884,2.99156 C15.70344,2.99156 15.7284,2.98584 15.7518,2.97388 L15.96724,2.86328 C16.0458,2.82284 16.07684,2.7264 16.03648,2.6478 Z" id="Path"></path>
            <path d="M15.1748,2.91036 L14.16948,3.42652 C14.09088,3.46688 14.05988,3.56332 14.10024,3.64196 C14.1286,3.69716 14.18464,3.72892 14.24272,3.72892 C14.26732,3.72892 14.29228,3.7232 14.31568,3.71124 L15.321,3.19508 C15.3996,3.15472 15.4306,3.05828 15.39024,2.97964 C15.34988,2.901 15.25344,2.87 15.1748,2.91036 Z" id="Path"></path>
            <path d="M12.38776,3.7566 L5.44636,7.32064 C5.36776,7.361 5.33676,7.45744 5.37712,7.53608 C5.40548,7.59128 5.46152,7.62304 5.5196,7.62304 C5.5442,7.62304 5.56916,7.61732 5.59256,7.60536 L6.02432,7.38368 C6.6338,8.44736 7.75668,9.10184 8.9928,9.10192 C8.99284,9.10192 8.99292,9.10192 8.99296,9.10192 C9.5388,9.10192 10.06344,8.97464 10.55232,8.7236 C11.365,8.30632 11.96656,7.59756 12.2462,6.7278 C12.50944,5.90904 12.45744,5.04 12.10232,4.26292 L12.53388,4.04132 C12.61248,4.00096 12.64348,3.90452 12.60312,3.82588 C12.5628,3.74724 12.46644,3.71628 12.38776,3.7566 Z M11.94156,6.62984 C11.68812,7.4182 11.14284,8.06068 10.40616,8.43888 C9.96288,8.66648 9.48748,8.78188 8.99296,8.78188 C8.99296,8.78188 8.99284,8.78188 8.9928,8.78188 C7.87716,8.78188 6.86308,8.19416 6.30892,7.23752 L11.81756,4.40912 C12.1338,5.11 12.1786,5.89248 11.94156,6.62984 Z" id="Shape"></path>
            <path d="M1.42636,7.26952 C1.87132,7.26952 2.23332,6.90752 2.23332,6.46256 C2.23332,6.0176 1.87132,5.6556 1.42636,5.6556 C0.9814,5.6556 0.61944,6.0176 0.61944,6.46256 C0.61944,6.90752 0.9814,7.26952 1.42636,7.26952 Z M1.42636,5.9756 C1.69488,5.9756 1.91332,6.19404 1.91332,6.46256 C1.91332,6.73108 1.69488,6.94952 1.42636,6.94952 C1.15788,6.94952 0.93944,6.73108 0.93944,6.46256 C0.93944,6.19404 1.15784,5.9756 1.42636,5.9756 Z" id="Shape"></path>
            <path d="M16.88844,7.33768 C16.33648,7.33768 15.8874,7.78676 15.8874,8.33872 C15.8874,8.89068 16.33648,9.33976 16.88844,9.33976 C17.4404,9.33976 17.88948,8.89068 17.88948,8.33872 C17.88948,7.78676 17.44044,7.33768 16.88844,7.33768 Z M16.88844,9.01976 C16.51292,9.01976 16.2074,8.71424 16.2074,8.33872 C16.2074,7.9632 16.51292,7.65768 16.88844,7.65768 C17.26396,7.65768 17.56948,7.9632 17.56948,8.33872 C17.56948,8.71424 17.264,9.01976 16.88844,9.01976 Z" id="Shape"></path>
        </g>
    </g>
</svg>